<svg width="160" height="44" viewBox="0 0 160 44" fill="none" xmlns="http://www.w3.org/2000/svg">
<path fill-rule="evenodd" clip-rule="evenodd" d="M145.34 13.5231C150.862 13.5231 156.212 16.8542 158.661 22.439C159.554 24.4715 160 26.5558 160 28.5884C160 34.2296 156.877 39.4803 151.638 41.8469C149.798 42.6985 147.906 43.0938 146.01 43.0938C140.432 43.0938 135.083 39.7626 132.633 34.1779C131.792 32.1453 131.346 30.0563 131.346 27.9673C131.346 22.3825 134.413 17.0801 139.707 14.7088C141.552 13.9183 143.444 13.5231 145.34 13.5231ZM11.987 0.09375C12.4285 0.09375 12.7074 0.263128 12.9909 0.601885L27.1996 29.7162L41.4175 0.601885C41.6964 0.263128 41.9752 0.09375 42.4214 0.09375H52.8978C53.4602 0.09375 53.7344 0.376047 53.7344 0.940642V2.63443C53.7344 3.19902 53.4602 3.47661 52.8978 3.47661C51.6754 3.47661 50.5042 3.70245 49.4444 4.3235V33.6683C49.4444 36.7171 50.8388 39.0273 53.5671 39.0273C54.1249 39.0273 54.4084 39.3143 54.4084 39.8789V41.5679C54.4084 42.1325 54.1249 42.4148 53.5671 42.4148H39.8C39.298 42.4148 38.9634 42.1325 38.9634 41.5679V39.8789C38.9634 39.3143 39.298 39.0273 39.8 39.0273C42.533 39.0273 43.8716 36.7171 43.8716 33.6683V12.2796L30.7134 39.2578C30.546 39.6483 30.216 39.8789 29.7652 39.8789H24.6339C24.1924 39.8789 23.8577 39.6483 23.6346 39.2578L10.5322 12.2796V33.6683C10.5322 36.7171 11.8708 39.0273 14.6037 39.0273C15.1057 39.0273 15.4403 39.3143 15.4403 39.8789V41.5679C15.4403 42.1325 15.1057 42.4148 14.6037 42.4148H0.831975C0.278874 42.4148 0 42.1325 0 41.5679V39.8789C0 39.3143 0.278874 39.0273 0.831975 39.0273C3.56494 39.0273 4.95932 36.7171 4.95932 33.6683V4.3235C3.89959 3.70245 2.72832 3.47661 1.50592 3.47661C0.948173 3.47661 0.669299 3.19902 0.669299 2.63443V0.940642C0.669299 0.376047 0.948173 0.09375 1.50592 0.09375H11.987ZM68.149 12.4527C68.2606 12.4527 68.2606 12.4527 68.3117 12.5092V33.6721C68.3117 36.7162 69.6549 39.0263 72.3832 39.0263H72.5552C73.113 39.0263 73.3872 39.3133 73.3872 39.8779V41.567C73.3872 42.1316 72.9968 42.4139 72.439 42.4139H56.6687C56.1109 42.4139 55.7205 42.1316 55.7205 41.567V39.8779C55.7205 39.3133 55.9947 39.0263 56.5525 39.0263H56.6687C59.397 39.0263 60.7356 36.7162 60.6798 33.6721V27.6874C60.6798 27.5719 60.6794 27.4552 60.6782 27.3378L60.6759 27.1609C60.6362 24.7367 60.2476 22.023 57.3891 21.7074C56.8313 21.6509 56.7198 21.3639 56.7198 20.9687V19.0538C56.7198 18.6021 56.9987 18.4892 57.5564 18.3198C63.4128 16.3437 66.3084 14.1418 67.8143 12.5609C67.8701 12.5092 67.9817 12.4527 68.0375 12.4527H68.149ZM87.8891 12.4508C87.9495 12.4508 88.0053 12.4508 88.0053 12.5073L86.6667 20.1246C88.67 15.782 92.5184 13.4671 96.4785 13.4671C99.9318 13.4671 102.772 15.4432 102.772 19.2777C102.772 20.9715 102.665 22.3265 101.326 22.8911L96.088 25.0366C95.9207 25.1448 95.7534 25.1448 95.5861 25.1448C95.2514 25.1448 95.0841 24.9237 95.0841 24.6414C95.0841 24.472 95.1399 24.3026 95.1956 24.1332C95.6372 23.0605 95.6976 22.1007 95.6976 21.3103C95.6976 19.2777 94.5821 18.3744 93.0808 18.3744C90.5152 18.3744 88.2795 21.2021 87.4987 23.2864V33.6702C87.4987 36.7143 88.8373 39.0291 91.5703 39.0291H91.6865C92.2396 39.0291 92.5184 39.3114 92.5184 39.876V41.5698C92.5184 42.1344 92.2396 42.412 91.6865 42.412H75.4653C74.9029 42.412 74.624 42.1344 74.624 41.5698V39.876C74.624 39.3114 74.9029 39.0291 75.4653 39.0291H75.5722C78.3051 39.0291 79.6437 36.7143 79.6437 33.6702L79.6436 26.4565L79.6429 26.2566L79.6412 26.0566C79.6102 23.2224 79.2502 20.3925 76.353 20.0682C75.7953 20.0164 75.6837 19.7294 75.6837 19.3342V17.4193C75.6837 16.9629 75.9626 16.7982 76.5203 16.6853C81.819 15.8384 86.0532 13.6365 87.4987 12.5638C87.6149 12.5073 87.666 12.4508 87.7822 12.4508H87.8891ZM116.167 12.4508C116.227 12.4508 116.283 12.4508 116.283 12.5073L114.945 20.1246C116.948 15.782 120.796 13.4671 124.756 13.4671C128.21 13.4671 131.05 15.4432 131.05 19.2777C131.05 20.9715 130.943 22.3265 129.604 22.8911L124.366 25.0366C124.199 25.1448 124.031 25.1448 123.864 25.1448C123.529 25.1448 123.362 24.9237 123.362 24.6414C123.362 24.472 123.418 24.3026 123.474 24.1332C123.915 23.0605 123.975 22.1007 123.975 21.3103C123.975 19.2777 122.86 18.3744 121.359 18.3744C118.793 18.3744 116.557 21.2021 115.777 23.2864V33.6702C115.777 36.7143 117.115 39.0291 119.848 39.0291H119.964C120.517 39.0291 120.796 39.3114 120.796 39.876V41.5698C120.796 42.1344 120.517 42.412 119.964 42.412H103.743C103.181 42.412 102.902 42.1344 102.902 41.5698V39.876C102.902 39.3114 103.181 39.0291 103.743 39.0291H103.85C106.583 39.0291 107.922 36.7143 107.922 33.6702V26.5563L107.921 26.2566C107.904 23.3569 107.596 20.4002 104.631 20.0682C104.073 20.0164 103.962 19.7294 103.962 19.3342V17.4193C103.962 16.9629 104.24 16.7982 104.798 16.6853C110.097 15.8384 114.331 13.6365 115.777 12.5638C115.893 12.5073 115.944 12.4508 116.06 12.4508H116.167ZM143.611 18.0399C142.886 18.0399 142.106 18.2092 141.38 18.5433C138.926 19.6207 137.983 21.8744 137.983 24.4715C137.983 26.5558 138.596 28.8754 139.545 31.0726C141.329 35.0812 144.276 38.577 147.739 38.577C148.464 38.577 149.184 38.4076 149.965 38.0736C152.363 36.9961 153.312 34.7425 153.312 32.1453C153.312 30.0563 152.698 27.6897 151.75 25.5443C150.021 21.5356 147.009 18.0399 143.611 18.0399ZM64.4167 0.657404C65.416 0.657404 66.1969 1.05262 67.2008 2.06889C68.2048 3.08516 68.5952 3.87559 68.5952 4.88716C68.5952 5.90343 68.2048 6.75503 67.2008 7.71013C66.1969 8.7264 65.416 9.12162 64.4167 9.12162C63.4128 9.12162 62.5715 8.7264 61.628 7.71013C60.624 6.75503 60.2336 5.90343 60.2336 4.88716C60.2336 3.87559 60.624 3.08516 61.628 2.06889C62.5715 1.05262 63.4128 0.657404 64.4167 0.657404Z" fill="white"/>
</svg>
